<svg xmlns="http://www.w3.org/2000/svg" width="396.541" height="109.005" viewBox="0 0 396.541 109.005">
  <g id="Group_200" data-name="Group 200" transform="translate(-295 574)">
    <g id="Group_199" data-name="Group 199" transform="translate(-1309 63)">
      <g id="Group_130" data-name="Group 130">
        <g id="Group_131" data-name="Group 131">
          <g id="TITLE" transform="translate(1704.221 -608.3)">
            <path id="Path_122" data-name="Path 122" d="M15.96.44c8.32,0,14.16-5.92,14.16-13.64,0-7.64-5.76-13.68-14.12-13.68-8.2,0-14.24,6.04-14.24,13.68C1.76-5.48,7.16.44,15.96.44Zm.08-22.4c5,0,8.2,3.92,8.2,8.76,0,4.92-3.2,8.88-8.2,8.88-5.08,0-8.28-3.84-8.28-8.88C7.76-18.08,11.08-21.96,16.04-21.96Zm18.6-4.44V0H52.8V-4.6H40.6V-26.4Zm25,11.12L53.96-26.4H47.52L56.6-10.44V0h5.96V-10.44l8.8-15.96H65L59.8-15.28Zm28,10.4,7.2-8.04a.241.241,0,0,1,.16.04V0h5.76V-26.84h-.84L87.2-12.08c-4.24-4.96-8.52-9.76-12.76-14.76h-.88V0h5.72V-12.88a.147.147,0,0,0,.12-.04l7.36,8.04ZM106.12,0h6V-8.52h4.4c5.84,0,9.72-3.88,9.72-9,0-4.48-3.2-8.84-10-8.84H106.12Zm9.12-21.92c3.56,0,5.04,2.24,5.04,4.52,0,2-1.12,4.44-5.08,4.44h-3.12v-8.96ZM135.92,0V-26.4h-5.96V0Zm23.04,0H165L152.68-26.88h-.88L139.28,0h5.92l1.84-4.16h10.12Zm-6.88-15.56h.16l3.16,7.32h-6.56Zm35.64,9.44a15.865,15.865,0,0,1-6.96,1.76c-5.32,0-8.76-3.2-8.76-8.72,0-5.88,4.2-9,9.08-9a14.225,14.225,0,0,1,5.84,1.24v-5a20.1,20.1,0,0,0-6.68-1.08c-8.72,0-14.28,6.28-14.28,13.84,0,7.68,5,13.56,14.12,13.56a19.114,19.114,0,0,0,7.68-1.56ZM205,.44c8.32,0,14.16-5.92,14.16-13.64,0-7.64-5.76-13.68-14.12-13.68-8.2,0-14.24,6.04-14.24,13.68C190.8-5.48,196.2.44,205,.44Zm.08-22.4c5,0,8.2,3.92,8.2,8.76,0,4.92-3.2,8.88-8.2,8.88-5.08,0-8.28-3.84-8.28-8.88C196.8-18.08,200.12-21.96,205.08-21.96Zm17.2,20.32A18.925,18.925,0,0,0,231.4.48c6.6,0,9.8-3.52,9.8-7.76,0-8.88-12.6-8.68-12.6-12.4,0-1.88,1.88-2.6,4-2.6a14.219,14.219,0,0,1,6.92,2.12v-5.12a19.042,19.042,0,0,0-7.88-1.68c-5.28,0-9,2.88-9,7.32,0,7.88,12.6,7.44,12.6,12.48,0,2.08-2.08,2.92-4.6,2.92a15.506,15.506,0,0,1-8.36-2.84ZM260.76,0V-10.6h10.6v-4.44h-10.6V-21.8h12.12v-4.6H254.8V0Zm35.52-6.12a15.865,15.865,0,0,1-6.96,1.76c-5.32,0-8.76-3.2-8.76-8.72,0-5.88,4.2-9,9.08-9a14.225,14.225,0,0,1,5.84,1.24v-5a20.1,20.1,0,0,0-6.68-1.08c-8.72,0-14.28,6.28-14.28,13.84,0,7.68,5,13.56,14.12,13.56a19.114,19.114,0,0,0,7.68-1.56Z" transform="translate(0 40.3)" fill="#fff"/>
          </g>
          <g id="olympiackos-official_logo" data-name="olympiackos-official logo" transform="translate(1604 -637)">
            <g id="Layer_1" data-name="Layer 1">
              <path id="Path_62" data-name="Path 62" d="M89.97,100.522A44.985,44.985,0,1,1,44.986,55.54,44.986,44.986,0,0,1,89.97,100.522" transform="translate(0 -36.506)" fill="#fff" fill-rule="evenodd"/>
              <path id="Path_63" data-name="Path 63" d="M21.512,77.043a41.811,41.811,0,1,0,59.13,0,41.81,41.81,0,0,0-59.13,0m.343,58.79a41.327,41.327,0,1,1,58.446,0,41.325,41.325,0,0,1-58.446,0" transform="translate(-6.09 -42.589)" fill="#dc0d15" fill-rule="evenodd"/>
              <path id="Path_64" data-name="Path 64" d="M53.609,68.67A40.485,40.485,0,1,0,94.09,109.153,40.486,40.486,0,0,0,53.609,68.67m0,72.313a31.821,31.821,0,1,1,31.814-31.82,31.823,31.823,0,0,1-31.814,31.82" transform="translate(-8.624 -45.136)" fill="#dc0d15" fill-rule="evenodd"/>
              <path id="Path_65" data-name="Path 65" d="M40.83,127.358A30.988,30.988,0,1,0,71.82,96.37a30.988,30.988,0,0,0-30.99,30.988m.483,0a30.5,30.5,0,1,1,30.5,30.5,30.5,30.5,0,0,1-30.5-30.5" transform="translate(-26.837 -63.342)" fill="#dc0d15" fill-rule="evenodd"/>
              <path id="Path_66" data-name="Path 66" d="M158.82,223.223c-.47-.045-.487-.141-.487-.744v-1.786c0-.6.024-.651.535-.74l.147-.031c.058-.038.051-.189-.031-.2-.209,0-.589.021-.977.021s-.809,0-.984-.021c-.075,0-.079.164-.021.2l.147.031c.507.089.535.141.535.74v1.786c0,.6-.021.685-.535.744l-.24.027a.137.137,0,0,0,.034.212c.161-.027.685-.027,1.062-.027s.86,0,1.066.027a.134.134,0,0,0,.027-.212l-.281-.027" transform="translate(-103.111 -144.418)" fill="#dc0d15" fill-rule="evenodd"/>
              <path id="Path_67" data-name="Path 67" d="M166.652,219.4a1.683,1.683,0,0,0-1.714,1.7,1.206,1.206,0,0,0,1.152,1.292,1.313,1.313,0,0,0,.85-.3c0-.069,0-.137-.055-.158a.987.987,0,0,1-.422.072c-.583,0-.9-.72-.9-1.261a.936.936,0,0,1,.888-1.056c.85,0,1.028.915,1.028,1.494a3.664,3.664,0,0,1-1.391,2.906,4.34,4.34,0,0,1-1.23.651c-.058.051,0,.158.045.188a4.157,4.157,0,0,0,2.025-.99,3.712,3.712,0,0,0,1.289-2.721c0-1.066-.507-1.827-1.559-1.827" transform="translate(-108.339 -144.201)" fill="#dc0d15" fill-rule="evenodd"/>
              <path id="Path_68" data-name="Path 68" d="M180.562,222.279c-.206.422-.4.432-.874.432H178.66c-.147,0-.171-.051-.165-.123l.685-.744c.524-.572.788-.9.788-1.426a1.028,1.028,0,0,0-1.134-1.028,1.648,1.648,0,0,0-1.395.984.134.134,0,0,0,.175.123,1.059,1.059,0,0,1,.891-.6.74.74,0,0,1,.771.843,2.536,2.536,0,0,1-.9,1.542,7.382,7.382,0,0,1-.877.8.117.117,0,0,0,.051.151,6.428,6.428,0,0,1,.778-.027h.86c.5,0,.867,0,1.193.027.106-.25.254-.562.408-.894a.147.147,0,0,0-.209-.072" transform="translate(-116.628 -144.201)" fill="#dc0d15" fill-rule="evenodd"/>
              <path id="Path_69" data-name="Path 69" d="M190.819,219.341a1,1,0,0,1-.476.13l-.6.082c-.281.045-.456.069-.569.1a1.21,1.21,0,0,0-.384.572,2.162,2.162,0,0,0-.2.685c0,.308.319.48.685.751a1.522,1.522,0,0,1,.716,1.213,2.052,2.052,0,0,1-1.395,1.758.151.151,0,0,0,.065.24c.641-.189,1.933-.987,1.933-2.2a1.911,1.911,0,0,0-.97-1.577c-.113-.082-.271-.185-.415-.281-.236-.161-.291-.264-.236-.422s.082-.206.343-.24l1.11-.165c.274-.031.439-.367.5-.555a.1.1,0,0,0-.1-.113" transform="translate(-123.941 -144.155)" fill="#dc0d15" fill-rule="evenodd"/>
              <path id="Path_70" data-name="Path 70" d="M62.187,150.126a52.64,52.64,0,0,1,.216-6c.075-.559.106-1.134.178-1.624a1.9,1.9,0,0,1,.2-.771,45.108,45.108,0,0,1,4.634.685,17.839,17.839,0,0,1,2.4-1.738c.562-.4,1.265-.884,1.738-1.258a.267.267,0,0,0,.1-.192,2.488,2.488,0,0,0-.192-.864,12.45,12.45,0,0,0-2.512.768c-1.3.446-2.642.713-3.862,1.066-.912.26-2,.637-2.8.768a2.387,2.387,0,0,1-1.734-1.251c-.37-.843.925-4.047.685-5.4,1.251-1.258,1.851-2.084,2.4-2.317a8.64,8.64,0,0,0-1.371,4.589,22.326,22.326,0,0,0,4.829-.85,8.485,8.485,0,0,0,4.263-3.163c.6,3.29,1.775,4.356,2.632,6.981,1.813.075,3.15-5.052,3.184-5.052.764,3,1.8,3.6,2.2,5.5.72-.106,1.371-1.662,1.81-1.748a5.355,5.355,0,0,0,.219.771,9.809,9.809,0,0,0,5.442-2.683c-1.371,3.331,1.662,7.7,1.991,8.006,1.176-.5,2.635-2.632,2.9-2.9a7.4,7.4,0,0,0,2.4,3.18c.518.363.96.593,1.5.932.545-.49.939-2.193,1.224-2.519,1.354,1.487,4.195,3.084,6.237,2.344,0,0-.343-4.959-3.571-6.854.456.055,1.121.233,1.556.322.727.137,4.113-.439,5.312-1.834-.963-1.463-2.869-3.489-7.07-3.736,1.028-.343,3.427-3.307,3.623-4.925-.949-.867-2.533-1-3.694-1.244a4.9,4.9,0,0,0-1.947-4.349c-.093-.254-.247-3.91-4.932-5.079a9.78,9.78,0,0,0-4.061-3.965,10.645,10.645,0,0,0-8.383-.291c-6.666-1.028-8.27,2.056-8.715,2.519a7.053,7.053,0,0,0-5.021,2.348c-.631-.062-3.311-1.511-4.236-1.282-.377,1.028.113,5.062.322,5.826-2.245.5-5.967-.963-6.8-.216-.257,1.6,1.223,3.544,1.223,3.544-1.714-.175-4.987.024-6.015.805-.219.212.377,1.542,1.241,2.4a7.115,7.115,0,0,0,4.428,1.858c0,.027-3.571,2.183-4.764,3.749a31.976,31.976,0,0,0,3.132,1.028c1.371.446,5.288-.86,5.353-.86-.216,1.062-.942,3.9-.963,4.438.031.823,1.638,1.953,2.214,2.313,0,1.827-.178,7.139-.178,7.139a10.1,10.1,0,0,0,.1,2.608c.785.147,3.77-.631,3.876-.552a13.2,13.2,0,0,1,.47,2.306,11.25,11.25,0,0,0,1.457.439c.154.466-.24,1.254.021,1.676.2.6,1.162.754,1.714.98,0,1.066.041,2.121.041,3.187.278.572,2.4,1.337,2.965,1.672,0-.031,4.6-4.455,4.606-4.455a13.081,13.081,0,0,1,2.056,2.526,33.06,33.06,0,0,1-3.427,5.8c-.11.2.593.685.685.819a17.234,17.234,0,0,0,2.091-2.992,25.676,25.676,0,0,0,1.974-3.886c-.775-1-1.672-1.947-2.4-2.858a13.805,13.805,0,0,1,1.5-2.536,1.028,1.028,0,0,0-.781-.264A68.353,68.353,0,0,1,71.718,160a16.687,16.687,0,0,0-1.669-.761c-.123-.668.13-2.838-.1-3.211-.264-.685-1.172-.6-1.714-.977-.034,0-.144-.089-.175-.106.082-2.375,0-1.755-1.5-2.5a.648.648,0,0,1-.127-.466,10.536,10.536,0,0,0-.25-2.608,19.936,19.936,0,0,0-3.845,1.086c-.065,0-.1,0-.113-.021l-.027-.1v-.223m39.412-21.231a2.925,2.925,0,0,1-1.066,1.251c-3.29,2.937-4.329,2.19-7.913,1.738,2.163-3.629,7.2-4.061,8.979-2.988m-12.564-7.053c1.155,3.362-.593,7.6-6.793,8.568,0-.031,5.4-2.464,5.638-5.96a8.8,8.8,0,0,0-1.669-.394,6.126,6.126,0,0,1,2.824-2.228m-26.208-3.7a15,15,0,0,1,4.592,2.341,5.66,5.66,0,0,1,1.066,2.649,5.36,5.36,0,0,1-.123,3.571c-1.59-.168-4.623-3.132-5.141-5.011a8.993,8.993,0,0,1-.4-3.551m-10.727,9.6c.685-.874,5.141-.816,5.9-.343a16.332,16.332,0,0,0,2.666,1.556c-.343.589-2.241,1.22-3.557,1.193-1.837-.031-4.167-1.062-5.011-2.4m6.758,6.642a6.148,6.148,0,0,1-1.844.343,8.073,8.073,0,0,1-2.982-.514A28.149,28.149,0,0,1,60,130.526,7.109,7.109,0,0,1,63,130.492c-.312,1.028-3.15,3.4-4.133,3.866m3.475-5.511c-1.861-.617-5.3-3.643-5.751-5.456a13.469,13.469,0,0,1,3.383.565,6.87,6.87,0,0,1,4.181,1.518,6.157,6.157,0,0,1,1.748,2.851,5.042,5.042,0,0,1-3.571.524m5.086,5.549c-1.028.514-2.42.456-3.962.853,1.412-6.467,6.3-6.827,7.461-6.834a6.567,6.567,0,0,1-3.5,5.98m3.18-8.753c-1.642-2.68-1.669-4.9-.291-7.958,1.69.23,5.161,5.518,1.936,9.558a4.3,4.3,0,0,1-1.645-1.6m3.866,12.307c-.384-1.642-1.457-2.824-1.875-4.558a3.93,3.93,0,0,1-.062-2.187,9.438,9.438,0,0,1,1.484-2.68c2.163.946,2.958,7.314.452,9.425m-.123-11.224c.223-2.879,3.427-5.573,7.862-6.063a7.338,7.338,0,0,1-4.867,6.063,14.26,14.26,0,0,1-3,0m5.319,11.906c-.343-1.542-2.615-5.271-1.953-7.406.178-.572.367-1.176.62-1.792.98.435,2.214,2.492,2.464,3.287.74,2.4-.637,5.713-1.131,5.912m.977-9.747a6.621,6.621,0,0,1-2.235-.966c2.289-2.42,5.919-3.934,8.03-3.084A6.536,6.536,0,0,1,83,128.247a5.529,5.529,0,0,1-2.361.641m1.275,9.055c.24-1.738.685-4.407,1.9-5.22A9.256,9.256,0,0,1,87.1,131.6c.61,1.748-1.974,6.145-5.189,6.347m7.142,4.822c-.295-.617-.819-1.343-1.1-1.977a8.619,8.619,0,0,1,.326-5.579c.442-.956,1.436-1.371,2.025-2.145,2.056,1.96-.507,9.373-1.254,9.7m-2.622-12.338c1.683-.85,2.56-2.54,4.047-3.568,2.488-1.714,4.647-1.33,5.117-.867a16.409,16.409,0,0,1-3.187,3.77c-1.933,1.131-5.439,1.237-5.984.685m8.887,13.6A5.668,5.668,0,0,1,93,142.018c-1.477-2.193-.87-4.932.288-6.947a8.342,8.342,0,0,1,1.162,1.347c1.861,2.6,1.422,4.178.867,7.632m6.957.709c-3.163-.12-5.113-3.084-5.124-6.316a4.651,4.651,0,0,1,2.492,1.309,10.8,10.8,0,0,1,2.632,5.007m-6.59-9.767c1.971-2.454,9.425.747,9.425,1.834a9.413,9.413,0,0,1-3.307.685c-2.426.223-5.785-2.056-6.118-2.516" transform="translate(-33.283 -74.081)" fill="#dc0d15" fill-rule="evenodd"/>
              <path id="Path_71" data-name="Path 71" d="M53.089,103.539a1.943,1.943,0,0,1-.1,2.81,1.9,1.9,0,0,1-2.814.027,1.953,1.953,0,0,1,.1-2.817,1.907,1.907,0,0,1,2.814-.021m.768-.747a2.928,2.928,0,0,0-4.291.038,2.979,2.979,0,0,0-.161,4.291,2.932,2.932,0,0,0,4.294-.038,2.973,2.973,0,0,0,.158-4.291" transform="translate(-31.923 -66.96)" fill="#fff" fill-rule="evenodd"/>
              <path id="Path_72" data-name="Path 72" d="M72.756,95.063l-3.341-2.252.73,3.958-1.014.188L68.04,91l.25-.168L73.325,94.2Z" transform="translate(-44.722 -59.701)" fill="#fff" fill-rule="evenodd"/>
              <path id="Path_73" data-name="Path 73" d="M81.618,84.354l.939,2.063-.929.425-.936-2.067L77.66,82.689l.631-.788,2.4,1.655.332-2.9,1,.038Z" transform="translate(-51.045 -53.016)" fill="#fff" fill-rule="evenodd"/>
              <path id="Path_74" data-name="Path 74" d="M103.045,79.608l-1.241-3.76-1.326,2.618-.175.038-2.358-1.748.572,3.921-1.008.141-.84-5.788.37-.178,3.026,2.269,1.7-3.386.4,0,1.837,5.555Z" transform="translate(-63.54 -48.461)" fill="#fff" fill-rule="evenodd"/>
              <path id="Path_75" data-name="Path 75" d="M126.461,78.412l-.058-4.678-2.492.038.062,4.671-1.021.01L122.88,72.8l4.524-.062.079,5.658Z" transform="translate(-80.767 -47.811)" fill="#fff" fill-rule="evenodd"/>
              <path id="Path_76" data-name="Path 76" d="M142.33,79.217l.744-5.607,1.014.137-.751,5.607Z" transform="translate(-93.551 -48.383)" fill="#fff" fill-rule="evenodd"/>
              <path id="Path_77" data-name="Path 77" d="M153.245,80.5l-1.532-.422,1.237-1.518Zm1.347,2-.908-6.018-.295-.079-3.859,4.705.8.658.685-.857,2.375.651.161,1.1Z" transform="translate(-98.284 -50.216)" fill="#fff" fill-rule="evenodd"/>
              <path id="Path_78" data-name="Path 78" d="M170.426,87.879l-1.11-3.66L168.1,86.772l-.918-.435L169.6,81.22l.925.446-.826,1.727,2.557-.908,1.152.541-3.057,1.1,1.33,4.353Z" transform="translate(-109.885 -53.385)" fill="#fff" fill-rule="evenodd"/>
              <path id="Path_79" data-name="Path 79" d="M187.719,95.977a1.94,1.94,0,0,1-2.783.4,1.906,1.906,0,0,1-.528-2.766,1.95,1.95,0,0,1,2.79-.4,1.9,1.9,0,0,1,.521,2.762m.874.62a2.925,2.925,0,0,0-.8-4.212,2.981,2.981,0,0,0-4.25.607,2.927,2.927,0,0,0,.805,4.212,2.977,2.977,0,0,0,4.246-.607" transform="translate(-120.263 -60.314)" fill="#fff" fill-rule="evenodd"/>
              <path id="Path_80" data-name="Path 80" d="M196.09,106.757l.4-.391,2.79-.617.353-2.337.555-.552,2.536,2.57-.706.7-1.515-1.535-.3,2.015-2.375.518,1.6,1.614-.7.692Z" transform="translate(-128.887 -67.608)" fill="#fff" fill-rule="evenodd"/>
              <path id="Path_81" data-name="Path 81" d="M30.786,126.3l.278.154,1.587,2.738,2.615-.271.4.233-1.707,3.057-.473-.264,1.3-2.33-2.485.254-1.463-2.543-1.361,2.437L29,129.5Z" transform="translate(-19.061 -83.015)" fill="#fff" fill-rule="evenodd"/>
              <path id="Path_82" data-name="Path 82" d="M26.3,146.409l-2.039-.771.216-.6,2.049.771,3.838-.843.154.62-3.472.757,2.1,2.865-.531.37Z" transform="translate(-15.946 -95.286)" fill="#fff" fill-rule="evenodd"/>
              <path id="Path_83" data-name="Path 83" d="M17.685,182.288l.031-3.465,3.914,1.762Zm-.384.86,5.59-2.42V180.5l-5.528-2.516-.188.192-.045,4.8Z" transform="translate(-11.259 -116.983)" fill="#fff" fill-rule="evenodd"/>
              <path id="Path_84" data-name="Path 84" d="M17.85,197.7l5.6-.816.411,2.8-.541.082L23,197.589l-1.6.236.295,2-.545.072-.291-2-2.375.353.367,2.492-.541.075Z" transform="translate(-11.733 -129.406)" fill="#fff" fill-rule="evenodd"/>
              <path id="Path_85" data-name="Path 85" d="M20.53,211.422l.312-.093,3.074.764,1.621-2.08.442-.134L27,213.228l-.521.161-.778-2.553L24.163,212.8l-2.855-.706.819,2.673-.521.154Z" transform="translate(-13.494 -137.951)" fill="#fff" fill-rule="evenodd"/>
              <path id="Path_86" data-name="Path 86" d="M28.191,231.484l3.972-2.533-3.7-.291-.141-.264,1.885-3.191L25.86,227l-.25-.583,5.432-2.258.178.4-2.128,3.6,4.171.326.23.377-4.959,3.156Z" transform="translate(-16.833 -147.337)" fill="#fff" fill-rule="evenodd"/>
              <path id="Path_87" data-name="Path 87" d="M45.942,250.3a2.365,2.365,0,0,1-3.393-.367,2.311,2.311,0,0,1,.219-3.407,2.348,2.348,0,0,1,3.386.374,2.3,2.3,0,0,1-.212,3.4m.4.487a2.924,2.924,0,0,0,.274-4.281,2.983,2.983,0,0,0-4.263-.47,2.936,2.936,0,0,0-.274,4.284,2.973,2.973,0,0,0,4.263.466" transform="translate(-27.137 -161.258)" fill="#fff" fill-rule="evenodd"/>
              <path id="Path_88" data-name="Path 88" d="M53.92,262.067l.2-.243,2.988-1.042.23-2.622.291-.36,2.69,2.245-.35.418-2.046-1.707-.209,2.485-2.779.966L57.08,264l-.35.411Z" transform="translate(-35.441 -169.448)" fill="#fff" fill-rule="evenodd"/>
              <path id="Path_89" data-name="Path 89" d="M85.543,278.991c-.425.994-1.659,1.237-2.9.826l1.511-3.509c1.22.637,1.82,1.69,1.371,2.683m.589.247c.531-1.254-.192-2.659-1.755-3.448l.106-.243-.6-.257-.106.254c-1.563-.555-3.15-.161-3.691,1.1s.188,2.649,1.741,3.427l-.171.4.589.26.175-.411c1.58.548,3.174.158,3.712-1.1m-4.082.326c-1.2-.631-1.8-1.679-1.371-2.67s1.662-1.251,2.879-.829Z" transform="translate(-52.512 -180.944)" fill="#fff" fill-rule="evenodd"/>
              <path id="Path_90" data-name="Path 90" d="M101.16,285.643l1.429-5.473.617.164-1.429,5.473Z" transform="translate(-66.491 -184.151)" fill="#fff" fill-rule="evenodd"/>
              <path id="Path_91" data-name="Path 91" d="M113.255,288.615l-1.234-4.76-2.423,4.291-.528-.332,3.023-5.333.226.027,1.542,5.96Z" transform="translate(-71.69 -185.669)" fill="#fff" fill-rule="evenodd"/>
              <path id="Path_92" data-name="Path 92" d="M130.916,287.337l-2.317.075,1.069-2.779Zm1.426,1.594-2.6-5.621h-.233l-2.231,5.764.579.236.531-1.35,2.773-.089.6,1.3Z" transform="translate(-83.659 -186.215)" fill="#fff" fill-rule="evenodd"/>
              <path id="Path_93" data-name="Path 93" d="M172.766,280.241l-3.485-3.461.11,4.928-.637-.017-.113-6.128.206-.093,4.366,4.335Z" transform="translate(-110.844 -181.062)" fill="#fff" fill-rule="evenodd"/>
              <path id="Path_94" data-name="Path 94" d="M185.918,269.415l1.107-.74.3.449-1.789,1.2-.425-.637a2.913,2.913,0,0,0,.288-2.893,2.483,2.483,0,0,0-4.1,2.735,2.906,2.906,0,0,0,2.779.847l.425.631-1.792,1.2-.3-.449,1.114-.744a2.744,2.744,0,0,1-1.714-5.158,2.942,2.942,0,0,1,4.113.586,3.007,3.007,0,0,1,0,2.978" transform="translate(-118.536 -174.366)" fill="#fff" fill-rule="evenodd"/>
              <path id="Path_95" data-name="Path 95" d="M220.746,229.384,216.223,227l-1.385,2.635,4.524,2.378-.3.562-5-2.632,1.981-3.763,5,2.642Z" transform="translate(-140.698 -148.664)" fill="#fff" fill-rule="evenodd"/>
              <path id="Path_96" data-name="Path 96" d="M227.374,217.172,222,215.393l.888-2.683.514.175-.685,2.08,1.539.5.634-1.923.521.175-.637,1.919,2.279.757.8-2.392.514.171Z" transform="translate(-145.917 -139.811)" fill="#fff" fill-rule="evenodd"/>
              <path id="Path_97" data-name="Path 97" d="M231.392,207.135l-5.542-1.145.134-.631,5.538,1.152Z" transform="translate(-148.447 -134.98)" fill="#fff" fill-rule="evenodd"/>
              <path id="Path_98" data-name="Path 98" d="M229.228,189.968a1.2,1.2,0,0,1,.942,1.35l-.079.915-2.132-.192.089-1a1.033,1.033,0,0,1,1.179-1.073m.051-.634a1.618,1.618,0,0,0-1.775,1.648l-.144,1.642,5.638.5.055-.637-2.42-.216.082-.908a1.8,1.8,0,0,0-1.436-2.032" transform="translate(-149.44 -124.44)" fill="#fff" fill-rule="evenodd"/>
              <path id="Path_99" data-name="Path 99" d="M231.726,174.273l.117,2.31-2.8-1Zm1.556-1.463-5.562,2.725v.226l5.806,2.1.233-.579-1.371-.5-.151-2.773,1.289-.637Z" transform="translate(-149.677 -113.585)" fill="#fff" fill-rule="evenodd"/>
              <path id="Path_100" data-name="Path 100" d="M232.109,165.964l-5.566,1.008-.113-.627,5.566-1Z" transform="translate(-148.829 -108.675)" fill="#fff" fill-rule="evenodd"/>
              <path id="Path_101" data-name="Path 101" d="M226.482,142.913l-.439-1.261.514-.182.709,2.032-.723.26a2.908,2.908,0,0,0-2.742-1.011,2.483,2.483,0,0,0,1.621,4.654,2.907,2.907,0,0,0,1.515-2.481l.723-.257.706,2.039-.518.182-.442-1.268a2.885,2.885,0,1,1-3.818-3.475,3.01,3.01,0,0,1,2.879.768" transform="translate(-145.785 -92.986)" fill="#fff" fill-rule="evenodd"/>
              <path id="Path_102" data-name="Path 102" d="M219.71,129.1l-.278.165-3.167-.082-1.131,2.378-.4.223L213,128.741l.48-.267,1.319,2.32,1.073-2.252,2.937.072-1.378-2.426.473-.267Z" transform="translate(-140.001 -82.765)" fill="#fff" fill-rule="evenodd"/>
              <path id="Path_103" data-name="Path 103" d="M18.057,161.924h.014l4.527-2.176-3.965-1.124.2-.6L24.38,159.6l-5.213,2.543L23.6,163l-.123.627-5.549-1.083Z" transform="translate(-11.785 -103.864)" fill="#fff" fill-rule="evenodd"/>
              <path id="Path_104" data-name="Path 104" d="M150.333,283.06a2.354,2.354,0,0,1-1.919,2.814,2.3,2.3,0,0,1-2.9-1.789,2.358,2.358,0,0,1,1.919-2.81,2.307,2.307,0,0,1,2.9,1.786m.624-.12a2.922,2.922,0,0,0-3.643-2.259,2.963,2.963,0,0,0-2.416,3.537,3.092,3.092,0,0,0,6.046-1.278" transform="translate(-95.193 -184.433)" fill="#fff" fill-rule="evenodd"/>
              <path id="Path_105" data-name="Path 105" d="M152.291,288l-3.335.709-.117-.559,3.335-.7Z" transform="translate(-97.83 -188.936)" fill="#fff" fill-rule="evenodd"/>
              <path id="Path_106" data-name="Path 106" d="M202.449,254.6l-.01-.007-4.976-.7,2.67,3.136-.5.387-3.725-4.4,5.741.778-3.211-3.174.452-.449,4.006,3.979Z" transform="translate(-128.768 -164.433)" fill="#fff" fill-rule="evenodd"/>
              <path id="Path_107" data-name="Path 107" d="M20.387,29.88l3.139,3.876,4.658-1.789-2.718,4.181,3.139,3.88-4.819-1.292L21.069,42.92l-.26-4.983L15.99,36.649l4.658-1.789Z" transform="translate(-10.51 -19.64)" fill="#d9c28c" fill-rule="evenodd"/>
              <path id="Path_108" data-name="Path 108" d="M85.965,0l2.108,4.52,4.949-.607-3.647,3.4,2.108,4.52L87.12,9.418l-3.65,3.4.953-4.9L80.06,5.5,85.012,4.9Z" transform="translate(-52.622)" fill="#d9c28c" fill-rule="evenodd"/>
              <path id="Path_109" data-name="Path 109" d="M151.7,0l.949,4.9L157.6,5.5l-4.363,2.42.953,4.9-3.65-3.4-4.363,2.42,2.108-4.52-3.646-3.4,4.949.607Z" transform="translate(-95.069)" fill="#d9c28c" fill-rule="evenodd"/>
              <path id="Path_110" data-name="Path 110" d="M217.938,29.88l-.26,4.98,4.658,1.789-4.819,1.289-.26,4.983-2.718-4.185-4.819,1.292,3.139-3.876-2.718-4.185,4.658,1.789Z" transform="translate(-137.845 -19.64)" fill="#d9c28c" fill-rule="evenodd"/>
            </g>
          </g>
        </g>
      </g>
    </g>
  </g>
</svg>
